<svg xmlns="http://www.w3.org/2000/svg" xmlns:xlink="http://www.w3.org/1999/xlink" width="358" height="200" viewBox="0 0 358 200">
  <defs>
    <clipPath id="clip-Explora-logo_1">
      <rect width="358" height="200"/>
    </clipPath>
  </defs>
  <g id="Explora-logo_1" data-name="Explora-logo – 1" clip-path="url(#clip-Explora-logo_1)">
    <g id="Capa_1" data-name="Capa 1" transform="translate(0 1)">
      <path id="Trazado_1" data-name="Trazado 1" d="M361.976,302.253h.078c-.078-.087-2.976-2.166-4.435-18.669-.966-10.66-1.144-23.651-1.222-34.12,0-8.044-.091-14.935-.537-18.946a1.522,1.522,0,0,0-.082-.606,4.613,4.613,0,0,0-9.075,1.568c.433,3.569.433,10.292.524,18.058.264,34.3,1.655,53.149,8.551,59.434a7.935,7.935,0,0,0,2.79,1.733,4.417,4.417,0,0,0,5.761-2.443A4.6,4.6,0,0,0,361.976,302.253Z" transform="translate(-205.606 -137.793)" fill="#ffffff"/>
      <path id="Trazado_2" data-name="Trazado 2" d="M141.074,282.051a4.76,4.76,0,0,0-1.568.178c-4.106.97-6.554,5.679-8.633,10.474-3.587,7.853-5.15,17.894-5.765,28.277-8.083-.654-18.57-8.078-23.741-12.042a57.179,57.179,0,0,1,7.953-7.333,4.578,4.578,0,0,0-5.233-7.511c-2.278,1.577-5.934,5.428-10.036,10.054-1.39-.8-2.8-1.581-4.2-2.456-4.531-2.7-9.148-5.4-13.606-7.853a4.561,4.561,0,0,0-6.194,1.733,5.908,5.908,0,0,0-.619,1.932v.6a4.617,4.617,0,0,0,2.361,3.751c4.358,2.356,8.728,4.973,13.354,7.754.866.533,1.733,1.061,2.7,1.594-6.536,7.5-11.674,13.237-18.414,16.291-5.887,2.668-13.887,3.426-18.717,1.035a23.991,23.991,0,0,1-11.539-11.657A24.17,24.17,0,0,0,42.508,316c4.791-1.819,8.984-5.146,12.808-10.989,3.149-4.8,4.717-9.59,4.717-13.532a10.356,10.356,0,0,0-2.166-6.8c-2.192-2.707-6.549-5.237-15.355-2.166a2.73,2.73,0,0,0-.8.355c-7.853,2.867-12.562,10.028-13.428,20.073-.087.953-.087,2.005-.087,3.032,0,.784.087,1.659.087,2.452-.693,0-1.486-.1-2.343-.191a4.6,4.6,0,0,0-4.895,4.288v.342a4.6,4.6,0,0,0,4.288,4.626c1.551.078,3.032.078,4.44.182,2.166,8.113,10.231,15.343,14.8,17.959,6.428,3.682,16.421,4.436,24.6,1.707,13.428-4.479,20.532-14.559,26.371-21.684,6.108,3.578,17.27,12.562,29.321,14.567-.087,9.426.433,10.322.866,18.444.338,5.414.611,10.114.611,13.619a4.514,4.514,0,0,0,4.526,4.544,4.583,4.583,0,0,0,4.622-4.54c0-3.747-.264-8.551-.52-14.143-.433-7.065-.866-7.1-.866-15.819v-2.6a15.593,15.593,0,0,0,5.414-.867,18.005,18.005,0,0,0,8.382-5.938c6.281-7.866,7.849-21.74,3.5-30.819C148.94,286.859,145.877,281.965,141.074,282.051Zm-103.729,24.1c0-.866.082-1.659.082-2.443.368-3.669,1.59-8.031,5.081-10.734a9.013,9.013,0,0,1,2.426-1.572c3.747-1.4,6.727-1.4,5.679,1.823a21.409,21.409,0,0,1-3.058,6.814,20.491,20.491,0,0,1-5.046,5.679,13.73,13.73,0,0,1-5.081,2.166C37.427,307.287,37.345,306.681,37.345,306.152Zm103.3,10.994a8.233,8.233,0,0,1-1.144,1.217,7.992,7.992,0,0,1-5.064,2.114c.533-7.762,3.24-18.071,5.064-23.915.351-.962.619-1.832.866-2.525.515-1.936,4.111-5.328,4.275,9.863C144.656,308.781,143.252,313.91,140.649,317.146Z" transform="translate(-21.028 -168.825)" fill="#ffffff"/>
      <path id="Trazado_3" data-name="Trazado 3" d="M518.525,296.262a33.514,33.514,0,0,0-7.065,5.15,26.791,26.791,0,0,0-4.3,4.89,61.413,61.413,0,0,1,.359-6.9v-.515a4.6,4.6,0,0,0-9.17-.433c-1.468,13.428,1.321,29.321,3.92,41.549a4.661,4.661,0,0,0,9.192-.542v-1.395l-.113-3.742c-.078-4.033-.078-7.511.113-10.565.433-8.732,2.694-14.294,11.665-19.562a4.582,4.582,0,0,0,1.733-6.272A4.643,4.643,0,0,0,518.525,296.262Z" transform="translate(-291.35 -176.309)" fill="#ffffff"/>
      <path id="Trazado_4" data-name="Trazado 4" d="M432.669,306.389c-1.88-8.23-8.343-19.527-15.494-23.464a10.777,10.777,0,0,0-5.133-1.455,7.082,7.082,0,0,0-5.111,2.14,5.107,5.107,0,0,0-2.265,2.231c-2.088,4.505-4.245,15.369-4.245,25.747,0,6.316.866,17.76,6.632,23.334a12.033,12.033,0,0,0,8.347,3.327h0a13.7,13.7,0,0,0,1.616-.1,19.3,19.3,0,0,0,6.892-2.356C436.19,329.122,433.717,311.587,432.669,306.389ZM416.9,328.914a3.646,3.646,0,0,1-3.266-.866c-2.348-2.218-3.638-8.117-3.638-16.62a79.4,79.4,0,0,1,1.841-17.417,4.553,4.553,0,0,0,1.473-1.91l.585.477a27.518,27.518,0,0,1,2.768,2.469c2.447,2.434,5.878,7.216,7.442,20.514C424.495,324.868,420.648,328.559,416.9,328.914Z" transform="translate(-236.071 -169.032)" fill="#ffffff"/>
      <path id="Trazado_5" data-name="Trazado 5" d="M478.7,28.238c-13.043-6.112-25.617-8.429-44.273-4.167-.191.048-2.218.554-2.335,1.3.052.186.1.377.277.433.516.476,1.577.377,1.828.4,4.47-.251,23.607-4.86,42.064,6.142,15.022,8.75,23.1,23.235,21.194,42.22-12.665.641-24.586,1.91-36.649,5.267A125.873,125.873,0,0,0,435.6,89.587a84.617,84.617,0,0,0-11.154,7.325c-16.936,13.428-13.211,25.5-.992,30.52,8.958,3.613,22.42,3.613,35.883-2.166,1.845-.806,3.8-1.8,5.761-2.868,14.208-7.567,31.529-20.54,38.088-41.059.78.035,1.391.087,2.083.108,2.439.078,4.878.489,7.23.663,31.646,2.33,73.875,17.365,78.09,62.193,1.395,14.862-7.13,32.855-26.652,35.675-26.444,3.825-37.226-19.28-40.613-38.153-.307-1.707-4.093-1.733-5.731-.923-2.218,1.109-2.56,3.344-2.088,5.978,6.125,34.124,31.958,48.354,57.1,41.181,26.059-7.433,28.588-33.284,27.7-43.216-3.9-43.559-43.71-68.21-94.814-70.211-.247,0-.719,0-1.074-.035C505.9,58.919,500.427,38.422,478.7,28.238Zm-19.059,88.326a42.892,42.892,0,0,1-7.706,2.98c-24.257,7.689-40.284-7.572-13.042-23.031a107.577,107.577,0,0,1,21.692-8.988,146.273,146.273,0,0,1,35.281-6.1c-6.7,17.417-25,29.745-36.247,35.138Z" transform="translate(-243.195 -21.895)" fill="#ffffff"/>
      <path id="Trazado_6" data-name="Trazado 6" d="M719.091,321.635a29.723,29.723,0,0,1-21.251,13.454c-26.444,3.825-37.226-19.28-40.613-38.153-.307-1.707-4.093-1.733-5.73-.923-2.218,1.109-2.56,3.344-2.088,5.978,6.125,34.124,31.958,48.354,57.1,41.18,10.522-3,17.2-9,21.377-15.741A68.195,68.195,0,0,1,719.091,321.635Z" transform="translate(-377.103 -176.983)" fill="#ffffff"/>
      <path id="Trazado_7" data-name="Trazado 7" d="M614.3,289.7a.087.087,0,0,1-.087.065l.035-.949a4.765,4.765,0,0,0-5.2-3.833c-.268.082-.459.143-.71.234a4.537,4.537,0,0,0-2.9-1.919,27.063,27.063,0,0,0-11.02.238,26.494,26.494,0,0,0-13.636,8.3,31.306,31.306,0,0,0-5.93,29.936c3.465,10.851,11.032,9.876,13.311,9.335a14.8,14.8,0,0,0,4.791-2.2c5.2-3.439,10.474-10.11,14.541-17.279C609.293,308.406,615.067,297,614.3,289.7Zm-20.939,26.379c-2.634,3.227-5.25,5.588-7.364,6.064-.338.074-1.226.294-2.339-3.24a21.8,21.8,0,0,1,4.093-20.974,17.289,17.289,0,0,1,6.337-4.622,17.1,17.1,0,0,1,9.72-.905,3.369,3.369,0,0,0,1.33-.056C604.411,298.179,599,309.186,593.361,316.077Z" transform="translate(-334.09 -169.81)" fill="#ffffff"/>
      <path id="Trazado_8" data-name="Trazado 8" d="M28.8,204.671a9.76,9.76,0,0,1-4.08-.866.472.472,0,0,0-.663.433v7.52a1,1,0,0,1-1,1H22a1,1,0,0,1-1-1.009V189.034a1,1,0,0,1,1-1h.9a1.018,1.018,0,0,1,1.014,1.018h0a.295.295,0,0,0,.468.238,8.2,8.2,0,0,1,5.016-1.568c4.332,0,7.7,3.422,7.7,8.36A8.246,8.246,0,0,1,28.8,204.671ZM28.4,190.295a6.439,6.439,0,0,0-2.95.823,2.863,2.863,0,0,0-1.421,2.486v5.289a2.824,2.824,0,0,0,1.542,2.543,7.173,7.173,0,0,0,3.162.706c3.422,0,5.7-2.98,5.28-6.931a5.4,5.4,0,0,0-5.6-4.916Z" transform="translate(-21 -115.888)" fill="#ffffff"/>
      <path id="Trazado_9" data-name="Trazado 9" d="M82.413,203.576h0a.433.433,0,0,0-.68-.329,7.091,7.091,0,0,1-4.375,1.438c-3.227,0-5.908-1.906-5.908-5.25,0-2.954,2.525-5.085,5.869-5.085a10.7,10.7,0,0,1,4.245.806.507.507,0,0,0,.693-.468v-.221c0-2.759-1.3-4.041-4.275-4.041a12.13,12.13,0,0,0-3.292.472.944.944,0,0,1-1.191-.736l-.147-.767A.866.866,0,0,1,74,188.372a18.494,18.494,0,0,1,4.371-.632c4.669,0,6.883,2.218,6.883,6.931v8.715a1,1,0,0,1-1,1H83.21a.8.8,0,0,1-.8-.814Zm-.156-4.8a1.3,1.3,0,0,0-.7-1.148,7.317,7.317,0,0,0-3.729-.949c-2.1,0-3.465.931-3.465,2.759s1.36,2.8,3.773,2.8a5.28,5.28,0,0,0,3.721-1.6,1.3,1.3,0,0,0,.4-.931Z" transform="translate(-49.597 -115.902)" fill="#ffffff"/>
      <path id="Trazado_10" data-name="Trazado 10" d="M123.521,194.056v9.352a1,1,0,0,1-1,1h-1.066a1,1,0,0,1-1-1v-14.32a1,1,0,0,1,1-1h.91a1,1,0,0,1,1,1v.68a.386.386,0,0,0,.658.273,7.277,7.277,0,0,1,4.436-2.226.658.658,0,0,1,.736.654v1.3a1.044,1.044,0,0,1-.949,1.035,6.974,6.974,0,0,0-4,1.62A2.192,2.192,0,0,0,123.521,194.056Z" transform="translate(-77.372 -115.942)" fill="#ffffff"/>
      <path id="Trazado_11" data-name="Trazado 11" d="M164.265,211.727v-7.8a.468.468,0,0,0-.719-.394,7.754,7.754,0,0,1-4.141,1.087c-4.7,0-8.165-3.227-8.165-8.321a8.487,8.487,0,0,1,8.23-8.633,7.554,7.554,0,0,1,4.475,1.386.295.295,0,0,0,.463-.238v-.039a.8.8,0,0,1,.8-.8h1.118a1,1,0,0,1,1,1V211.7a1,1,0,0,1-1,1h-1.066A1,1,0,0,1,164.265,211.727Zm0-18.006a2.851,2.851,0,0,0-1.217-2.348,6.1,6.1,0,0,0-3.409-1.113c-3.071,0-5.362,2.486-5.362,5.986,0,3.422,1.979,5.83,5.791,5.83a5.345,5.345,0,0,0,2.993-.931,2.824,2.824,0,0,0,1.2-2.339Z" transform="translate(-94.825 -115.862)" fill="#ffffff"/>
      <path id="Trazado_12" data-name="Trazado 12" d="M216.789,203.765v-.355a.433.433,0,0,0-.68-.321,8.982,8.982,0,0,1-5.2,2.01c-3.812,0-5.631-2.3-5.631-5.562V189.445a1,1,0,0,1,1-1h1.066a1,1,0,0,1,1,1v9.261c0,2.525,1.092,3.807,3.422,3.807a6.35,6.35,0,0,0,3.833-1.542,2.759,2.759,0,0,0,1.027-2.166v-9.356a1,1,0,0,1,1-1H218.7a1,1,0,0,1,1,1v14.32a1,1,0,0,1-1,1h-.91a1.005,1.005,0,0,1-1-1.009Z" transform="translate(-125.457 -116.299)" fill="#ffffff"/>
      <path id="Trazado_13" data-name="Trazado 13" d="M268.782,197.128H257.918a.433.433,0,0,0-.433.533c.481,2.53,2.1,4.366,6.021,4.366a13.54,13.54,0,0,0,3.69-.637.8.8,0,0,1,1,.606l.212,1.014a.793.793,0,0,1-.576.931,18.886,18.886,0,0,1-4.6.732c-5.874,0-8.828-3.695-8.828-8.4,0-4.47,2.876-8.555,7.931-8.555,4.626,0,7.156,3.422,7.156,7.853a9.294,9.294,0,0,1-.03.936A.676.676,0,0,1,268.782,197.128Zm-2.655-2.33a.464.464,0,0,0,.459-.524,4.271,4.271,0,0,0-4.453-3.985c-2.5,0-4.093,1.525-4.557,4.054a.385.385,0,0,0,.381.455Z" transform="translate(-153.306 -115.891)" fill="#ffffff"/>
    </g>
  </g>
</svg>
